<?xml version="1.0" encoding="UTF-8"?>
<!DOCTYPE svg
PUBLIC "-//W3C//DTD SVG 1.1//EN"
       "http://www.w3.org/Graphics/SVG/1.1/DTD/svg11.dtd">
<svg viewBox="344 93 838 375" width="494px" height="282px" xmlns="http://www.w3.org/2000/svg" version="1.1">
   <rect width="115" height="20" x="708" y="108" style="fill:#007;stroke:black;"/>
   <text width="115" height="20" x="713" y="122" style="fill:#fff;" font-family="Arial" font-size="16px"> books</text>
   <rect width="115" height="20" x="708" y="128" style="fill:#aea;stroke:black;"/>
   <text width="115" height="20" x="713" y="142" style="fill:black;" font-family="Arial" font-size="16px">id</text>
   <rect width="115" height="20" x="708" y="148" style="fill:none;stroke:black;"/>
   <text width="115" height="20" x="713" y="162" style="fill:black;" font-family="Arial" font-size="16px">book_name</text>
   <rect width="115" height="20" x="708" y="168" style="fill:none;stroke:black;"/>
   <text width="115" height="20" x="713" y="182" style="fill:black;" font-family="Arial" font-size="16px">book_publisher</text>
   <rect width="115" height="20" x="708" y="188" style="fill:none;stroke:black;"/>
   <text width="115" height="20" x="713" y="202" style="fill:black;" font-family="Arial" font-size="16px">book_price</text>
   <rect width="81" height="20" x="530" y="280" style="fill:#007;stroke:black;"/>
   <text width="81" height="20" x="535" y="294" style="fill:#fff;" font-family="Arial" font-size="16px"> login</text>
   <rect width="81" height="20" x="530" y="300" style="fill:#aea;stroke:black;"/>
   <text width="81" height="20" x="535" y="314" style="fill:black;" font-family="Arial" font-size="16px">id</text>
   <rect width="81" height="20" x="530" y="320" style="fill:none;stroke:black;"/>
   <text width="81" height="20" x="535" y="334" style="fill:black;" font-family="Arial" font-size="16px">username</text>
   <rect width="81" height="20" x="530" y="340" style="fill:none;stroke:black;"/>
   <text width="81" height="20" x="535" y="354" style="fill:black;" font-family="Arial" font-size="16px">password</text>
   <rect width="81" height="20" x="359" y="122" style="fill:#007;stroke:black;"/>
   <text width="81" height="20" x="364" y="136" style="fill:#fff;" font-family="Arial" font-size="16px"> register</text>
   <rect width="81" height="20" x="359" y="142" style="fill:#aea;stroke:black;"/>
   <text width="81" height="20" x="364" y="156" style="fill:black;" font-family="Arial" font-size="16px">id</text>
   <rect width="81" height="20" x="359" y="162" style="fill:none;stroke:black;"/>
   <text width="81" height="20" x="364" y="176" style="fill:black;" font-family="Arial" font-size="16px">name</text>
   <rect width="81" height="20" x="359" y="182" style="fill:none;stroke:black;"/>
   <text width="81" height="20" x="364" y="196" style="fill:black;" font-family="Arial" font-size="16px">email</text>
   <rect width="81" height="20" x="359" y="202" style="fill:none;stroke:black;"/>
   <text width="81" height="20" x="364" y="216" style="fill:black;" font-family="Arial" font-size="16px">username</text>
   <rect width="81" height="20" x="359" y="222" style="fill:none;stroke:black;"/>
   <text width="81" height="20" x="364" y="236" style="fill:black;" font-family="Arial" font-size="16px">password</text>
</svg>
